<svg xmlns="http://www.w3.org/2000/svg" width="256" height="256" viewBox="0 0 256 256">
  <defs>
    <linearGradient id="g" x1="0" y1="0" x2="1" y2="1">
      <stop offset="0" stop-color="#20F2D9"/>
      <stop offset="1" stop-color="#0BC1AE"/>
    </linearGradient>
    <filter id="s" x="-30%" y="-30%" width="160%" height="160%">
      <feDropShadow dx="0" dy="2" stdDeviation="6" flood-color="#14b8a6" flood-opacity="0.35"/>
    </filter>
  </defs>
  <rect rx="56" ry="56" width="256" height="256" fill="#0b1426"/>
  <!-- R -->
  <path d="M36 212V44h60c24 0 40 14 40 34 0 18-12 31-33 34l36 40h-44l-34-36h-5v36H36zm45-87h23c10 0 17-6 17-14 0-9-7-15-17-15H81v29z"
        fill="url(#g)" filter="url(#s)"/>
  <!-- A -->
  <path d="M140 212L174 44h42l34 168h-39l-5-18h-43l-5 18h-38zm61-69h31l-16-56-15 56z"
        fill="url(#g)" filter="url(#s)"/>
  <!-- I -->
  <path d="M226 212V44h30v168h-30z" fill="url(#g)" filter="url(#s)"/>
</svg>